# xmcd
# 
# Track frame offsets:
#     150
#     21995
#     37428
# 
# Disc length: 781
# 
# Revision: 11
# Processed by: cddbd v1.5.2PL0 Copyright (c) Steve Scherf et al.
# Submitted via: BonkEnc v1.0.8
# 
DISCID=26030b03
DTITLE=Depeche Mode - Singles Box Vol. 1
DYEAR=1982
DGENRE=Electronic
TTITLE0=See You (Extended Version)
TTITLE1=Now This Is Fun
TTITLE2=Now This Is Fun (Extended Version)
EXTD=
EXTT0=
EXTT1=
EXTT2=
PLAYORDER=
